<?xml version="1.0" standalone="no"?>
<!DOCTYPE svg PUBLIC "-//W3C//DTD SVG 20010904//EN"
 "http://www.w3.org/TR/2001/REC-SVG-20010904/DTD/svg10.dtd">
<svg version="1.0" xmlns="http://www.w3.org/2000/svg"
 width="2400.000000pt" height="2400.000000pt" viewBox="0 0 2400.000000 2400.000000"
 preserveAspectRatio="xMidYMid meet">
<metadata>
Created by potrace 1.14, written by Peter Selinger 2001-2017
</metadata>
<g transform="translate(0.000000,2400.000000) scale(0.100000,-0.100000)"
fill="#000000" stroke="none">
<path d="M9938 23995 c-2 -2 -26 -6 -53 -9 -125 -13 -189 -28 -395 -91 -10 -3
-47 -18 -105 -43 -540 -233 -925 -714 -1036 -1295 -32 -167 -32 -422 0 -607
16 -93 65 -270 90 -325 5 -11 24 -54 42 -95 178 -405 553 -752 986 -915 199
-75 381 -108 603 -109 275 -2 430 24 665 111 112 41 313 147 390 205 317 240
508 484 635 815 41 105 87 285 96 372 2 25 7 57 9 71 6 32 6 294 0 340 -2 19
-7 55 -10 79 -15 114 -70 320 -101 379 -7 15 -14 31 -14 37 0 12 -94 195 -127
249 -117 189 -287 367 -488 514 -77 57 -266 157 -370 199 -113 44 -260 84
-385 103 -68 11 -424 23 -432 15z"/>
<path d="M15596 21804 c-22 -8 -49 -16 -60 -19 -25 -5 -117 -33 -251 -75 -55
-17 -107 -33 -115 -35 -53 -15 -128 -37 -215 -64 -55 -17 -108 -33 -117 -36
-9 -2 -61 -17 -115 -34 -54 -17 -174 -53 -268 -81 -93 -28 -191 -58 -216 -66
-25 -9 -52 -17 -60 -18 -8 -2 -21 -6 -29 -9 -15 -6 -257 -78 -340 -102 -25 -7
-99 -29 -165 -50 -66 -20 -136 -42 -156 -47 l-35 -9 32 -112 c69 -238 167
-577 200 -692 20 -66 44 -149 54 -185 10 -36 52 -184 95 -330 140 -485 195
-675 206 -715 6 -22 15 -51 20 -65 7 -22 147 -508 199 -690 10 -36 50 -175 89
-310 40 -135 81 -276 91 -315 11 -38 44 -152 74 -252 30 -101 53 -183 51 -183
-1 0 -38 62 -81 138 -44 75 -83 145 -89 154 -5 9 -20 35 -32 57 -12 22 -111
195 -219 383 -108 189 -205 357 -214 373 -25 45 -90 158 -100 175 -9 14 -95
166 -148 260 -14 25 -68 119 -120 210 -103 179 -110 192 -166 292 -41 73 -57
88 -221 198 -60 40 -157 106 -215 145 -58 39 -168 114 -245 167 -149 101 -404
273 -625 422 -74 50 -136 94 -138 99 -2 4 -10 7 -18 7 -8 0 -170 -105 -361
-232 -191 -128 -352 -235 -357 -237 -6 -2 -15 -8 -21 -13 -5 -5 -426 -287
-935 -626 -922 -615 -925 -617 -941 -662 -9 -25 -19 -52 -22 -60 -3 -8 -15
-42 -26 -75 -10 -33 -54 -159 -96 -280 -120 -344 -235 -675 -255 -735 -10 -30
-31 -89 -45 -130 -15 -41 -65 -183 -110 -315 -112 -322 -220 -635 -355 -1020
-61 -176 -113 -327 -115 -335 -3 -8 -25 -73 -50 -145 -26 -71 -77 -218 -114
-325 l-68 -195 -174 -108 c-96 -59 -205 -127 -243 -150 -165 -100 -304 -185
-361 -222 -27 -18 -268 -167 -535 -331 -267 -164 -512 -315 -545 -335 -33 -21
-94 -58 -135 -83 -41 -26 -118 -73 -170 -105 -52 -33 -144 -90 -205 -127 -60
-37 -259 -160 -442 -273 -183 -113 -340 -210 -350 -216 -10 -5 -69 -41 -131
-80 -62 -38 -120 -74 -130 -80 -16 -10 -285 -176 -289 -179 -1 -1 13 -25 30
-55 18 -29 41 -68 52 -87 11 -19 58 -96 104 -172 79 -130 184 -301 504 -827
77 -126 147 -242 156 -256 l16 -26 127 81 c70 44 195 125 278 178 l150 97 22
-42 c11 -23 437 -874 946 -1892 930 -1862 1377 -2755 1392 -2784 5 -9 41 -81
81 -161 40 -80 76 -152 80 -160 4 -8 58 -116 120 -240 62 -124 116 -232 120
-240 5 -8 84 -167 176 -352 l167 -337 -18 -87 c-10 -48 -20 -99 -22 -113 -2
-14 -9 -46 -14 -71 -5 -25 -12 -58 -15 -75 -2 -16 -20 -110 -40 -208 -19 -98
-37 -191 -40 -205 -3 -15 -7 -38 -10 -52 -3 -14 -14 -70 -25 -125 -23 -121
-117 -599 -124 -637 -22 -105 -88 -441 -92 -468 -2 -14 -9 -45 -14 -70 -5 -25
-12 -56 -14 -70 -3 -14 -14 -74 -26 -135 -12 -60 -24 -121 -27 -135 -2 -14
-15 -80 -29 -148 -13 -68 -26 -136 -29 -150 -3 -15 -7 -38 -10 -52 -10 -50
-17 -85 -20 -105 -2 -11 -9 -45 -15 -75 -6 -30 -13 -66 -16 -80 -2 -14 -11
-59 -19 -100 -9 -41 -17 -84 -19 -96 -2 -11 -16 -79 -30 -150 -14 -71 -28
-142 -30 -159 -3 -16 -8 -39 -10 -50 -5 -25 -46 -232 -52 -262 -5 -26 -7 -40
-28 -143 -8 -41 -17 -86 -19 -100 -3 -14 -14 -72 -26 -130 -51 -258 -131 -665
-131 -671 0 -6 49 -15 130 -25 8 -1 33 -4 55 -8 39 -6 144 -23 195 -31 14 -2
48 -6 75 -10 28 -3 57 -8 65 -10 8 -2 38 -6 65 -10 28 -3 75 -10 105 -15 30
-5 75 -12 100 -15 59 -8 99 -14 130 -20 14 -3 42 -7 63 -10 20 -3 54 -7 75
-10 20 -3 48 -7 62 -10 14 -2 45 -7 70 -10 25 -4 56 -8 70 -10 14 -2 57 -9 95
-15 39 -6 88 -14 110 -16 22 -3 47 -7 55 -9 8 -2 38 -7 65 -10 28 -3 59 -8 71
-10 20 -4 127 -21 204 -31 19 -2 64 -9 99 -15 35 -5 67 -6 72 -2 4 4 26 80 49
168 24 88 72 268 107 400 35 132 82 308 104 390 21 83 50 193 64 245 71 263
84 314 126 474 l10 39 23 -34 c12 -19 82 -133 155 -254 73 -121 150 -249 172
-284 21 -34 39 -64 39 -66 0 -2 23 -41 52 -87 28 -46 66 -108 84 -138 17 -30
96 -162 175 -292 79 -131 214 -353 299 -495 85 -142 160 -263 166 -270 9 -9
93 -12 340 -10 l329 2 101 280 102 279 -28 56 c-15 30 -50 102 -78 160 -27 58
-70 148 -95 200 -25 52 -81 171 -126 264 -45 92 -81 169 -81 171 0 1 -42 90
-94 197 -51 106 -105 218 -119 248 -28 62 -102 217 -202 425 -37 77 -84 176
-105 220 -20 44 -62 132 -93 195 -77 162 -162 340 -212 445 -23 50 -71 149
-105 220 -230 479 -242 505 -235 534 3 14 7 37 10 51 3 14 27 140 54 280 28
140 53 271 56 290 3 19 8 42 10 50 2 8 6 26 9 40 2 14 13 75 25 135 28 147 30
156 36 185 8 39 15 72 20 105 3 17 8 41 10 55 3 14 8 36 10 50 3 14 8 41 11
60 3 19 14 76 24 125 11 50 31 154 46 232 l26 142 172 175 c94 96 347 353 561
571 215 218 469 477 565 575 96 98 355 361 575 585 220 223 484 492 586 596
l185 191 17 -39 c9 -21 133 -366 276 -768 143 -401 268 -755 279 -785 38 -106
84 -236 139 -389 47 -134 94 -236 163 -356 24 -41 75 -137 150 -280 35 -66 66
-124 70 -130 4 -5 29 -50 55 -100 26 -49 61 -115 78 -145 142 -264 247 -459
284 -530 25 -47 58 -107 73 -135 39 -70 98 -180 135 -250 17 -33 45 -85 62
-115 16 -30 52 -95 78 -145 26 -49 60 -112 75 -140 15 -27 45 -84 67 -125 96
-180 128 -238 153 -285 15 -27 47 -86 70 -130 23 -44 56 -105 73 -135 79 -145
113 -207 217 -405 29 -55 56 -104 60 -110 4 -5 38 -68 75 -140 37 -71 71 -134
75 -140 4 -5 31 -55 60 -110 46 -88 184 -343 286 -532 19 -35 50 -93 70 -130
20 -38 51 -95 69 -128 104 -191 156 -289 220 -410 26 -49 60 -112 75 -140 49
-89 172 -318 218 -405 24 -47 55 -103 67 -125 37 -66 77 -141 180 -333 54
-101 103 -186 109 -188 6 -2 63 19 126 47 63 28 284 125 490 216 206 90 393
173 415 183 22 10 159 71 305 135 422 186 392 169 379 202 -16 41 -67 178 -94
253 -51 142 -286 776 -295 795 -5 11 -21 54 -35 95 -14 41 -57 159 -96 262
-90 246 -192 522 -280 761 -39 105 -73 199 -76 207 -4 8 -7 17 -8 20 -1 3 -5
12 -8 20 -4 8 -35 94 -70 190 -36 96 -106 288 -156 425 -51 138 -108 293 -127
345 -19 52 -39 104 -44 115 -5 11 -90 243 -190 515 -100 272 -188 509 -196
527 -8 17 -14 34 -14 38 0 7 -130 363 -151 415 -6 13 -37 98 -70 190 -33 91
-66 181 -74 200 -8 19 -98 262 -200 540 -103 278 -240 649 -305 825 -65 176
-143 388 -173 470 -30 83 -60 161 -66 175 -5 14 -67 180 -136 370 -70 190
-156 424 -191 520 -36 96 -73 198 -84 225 -10 28 -31 86 -48 130 -113 299
-110 288 -112 440 -1 77 -3 203 -5 280 -4 182 -15 716 -20 970 -2 110 -7 324
-10 475 -3 151 -8 367 -10 480 -2 113 -6 214 -9 225 -2 11 -9 56 -16 100 -7
44 -14 89 -16 100 -3 11 -7 36 -10 55 -3 19 -7 46 -10 60 -2 14 -13 81 -24
150 -26 155 -26 156 -44 265 -9 50 -18 108 -21 130 -3 22 -7 49 -10 60 -2 11
-7 43 -10 70 -4 28 -8 57 -10 65 -3 8 -7 33 -10 55 -3 22 -8 51 -11 65 -3 13
-8 40 -10 60 -2 19 -6 44 -8 55 -4 19 -9 48 -21 120 -3 17 -7 46 -10 65 -3 19
-10 60 -15 90 -6 30 -26 152 -45 270 -19 118 -37 226 -40 240 -3 14 -7 43 -10
65 -3 22 -7 54 -10 70 -3 17 -7 44 -10 60 -3 17 -7 41 -10 55 -3 14 -8 45 -11
70 -3 25 -8 48 -10 52 -3 4 28 16 68 28 40 12 80 24 88 27 8 2 83 24 165 48
201 58 581 170 680 200 44 13 136 40 205 60 69 20 202 59 295 87 94 27 180 52
193 55 13 3 26 11 28 18 3 6 -7 49 -22 96 -14 46 -27 89 -28 94 -1 6 -21 71
-45 145 -23 74 -47 149 -52 165 -71 233 -104 339 -116 380 -16 55 -39 128 -79
253 -14 45 -27 88 -28 95 -1 7 -19 64 -39 127 -20 63 -145 468 -277 899 -132
431 -249 811 -260 845 -49 156 -153 494 -160 521 -4 17 -20 66 -34 110 -21 67
-503 1633 -626 2035 -21 69 -63 206 -94 305 -82 270 -116 379 -119 381 -1 1
-20 -5 -41 -12z m-5156 -7014 c291 -452 529 -821 638 -990 73 -112 151 -232
217 -335 51 -78 206 -318 288 -445 41 -63 124 -192 185 -285 l110 -171 7 -94
c4 -52 8 -115 10 -140 2 -25 6 -79 9 -120 4 -41 9 -106 12 -145 4 -38 7 -92 7
-120 1 -48 -19 -84 -517 -950 -285 -495 -541 -940 -570 -990 -29 -49 -109
-187 -176 -305 -68 -118 -161 -280 -207 -359 -46 -79 -83 -145 -83 -148 0 -3
-8 -17 -18 -31 -11 -15 -33 -52 -49 -82 -17 -30 -71 -125 -120 -210 -49 -85
-101 -175 -115 -200 -14 -25 -82 -143 -151 -262 -68 -119 -250 -467 -403 -772
-153 -305 -281 -553 -285 -550 -7 4 -2510 5004 -2531 5056 -7 18 -18 13 372
153 102 36 235 84 295 106 179 65 262 95 415 149 80 28 154 55 165 60 11 5
299 108 640 230 340 122 627 226 636 231 9 4 27 28 39 51 26 50 43 81 201 366
66 117 119 215 119 218 0 2 10 21 23 42 13 20 41 69 62 107 54 101 76 140 242
440 83 149 167 302 188 340 21 39 70 126 108 195 39 69 75 135 81 147 6 13 13
23 16 23 3 0 66 -95 140 -210z"/>
</g>
</svg>
